<svg xmlns="http://www.w3.org/2000/svg" viewBox="0 0 1200 320" width="1200" height="320"><style>
text{font-family:ui-monospace,"SF Mono",Menlo,Consolas,"DejaVu Sans Mono","PingFang TC","Microsoft JhengHei","Noto Sans CJK TC",monospace;fill:#ffffff}
.m{fill:#777777}.s{fill:#9a9a9a}.d{fill:#555555}.k{fill:#000000}.b{font-weight:700}
</style><defs></defs><rect x="6.5" y="6.5" width="1187" height="307" fill="#0a0a0a" stroke="#262626" rx="26" /><text x="44" y="52" font-size="14" class="s" letter-spacing="3">TOOLS</text><text x="704" y="52" font-size="14" class="s" letter-spacing="3">SELECTED PROJECTS</text><line x1="640" y1="34" x2="640" y2="286" stroke="#262626"/><text x="44" y="104" font-size="18" >PYTHON</text><rect x="270" y="89" width="52" height="14" fill="#ffffff" rx="7" ><animate attributeName="width" values="0;0;52" keyTimes="0;0.000;1" dur="0.60s" fill="freeze"/></rect><rect x="330" y="89" width="52" height="14" fill="#ffffff" rx="7" ><animate attributeName="width" values="0;0;52" keyTimes="0;0.091;1" dur="0.66s" fill="freeze"/></rect><rect x="390" y="89" width="52" height="14" fill="#ffffff" rx="7" ><animate attributeName="width" values="0;0;52" keyTimes="0;0.167;1" dur="0.72s" fill="freeze"/></rect><rect x="450" y="89" width="52" height="14" fill="#ffffff" rx="7" ><animate attributeName="width" values="0;0;52" keyTimes="0;0.231;1" dur="0.78s" fill="freeze"/></rect><rect x="510" y="89" width="52" height="14" fill="#ffffff" rx="7" ><animate attributeName="width" values="0;0;52" keyTimes="0;0.286;1" dur="0.84s" fill="freeze"/></rect><text x="44" y="146" font-size="18" >SQL</text><rect x="270" y="131" width="52" height="14" fill="#ffffff" rx="7" ><animate attributeName="width" values="0;0;52" keyTimes="0;0.333;1" dur="0.90s" fill="freeze"/></rect><rect x="330" y="131" width="52" height="14" fill="#ffffff" rx="7" ><animate attributeName="width" values="0;0;52" keyTimes="0;0.375;1" dur="0.96s" fill="freeze"/></rect><rect x="390" y="131" width="52" height="14" fill="#ffffff" rx="7" ><animate attributeName="width" values="0;0;52" keyTimes="0;0.412;1" dur="1.02s" fill="freeze"/></rect><rect x="450" y="131" width="52" height="14" fill="#ffffff" rx="7" ><animate attributeName="width" values="0;0;52" keyTimes="0;0.444;1" dur="1.08s" fill="freeze"/></rect><rect x="510" y="131" width="52" height="14" fill="#1a1a1a" rx="7" /><text x="44" y="188" font-size="18" >JUPYTER · ML</text><rect x="270" y="173" width="52" height="14" fill="#ffffff" rx="7" ><animate attributeName="width" values="0;0;52" keyTimes="0;0.500;1" dur="1.20s" fill="freeze"/></rect><rect x="330" y="173" width="52" height="14" fill="#ffffff" rx="7" ><animate attributeName="width" values="0;0;52" keyTimes="0;0.524;1" dur="1.26s" fill="freeze"/></rect><rect x="390" y="173" width="52" height="14" fill="#ffffff" rx="7" ><animate attributeName="width" values="0;0;52" keyTimes="0;0.545;1" dur="1.32s" fill="freeze"/></rect><rect x="450" y="173" width="52" height="14" fill="#ffffff" rx="7" ><animate attributeName="width" values="0;0;52" keyTimes="0;0.565;1" dur="1.38s" fill="freeze"/></rect><rect x="510" y="173" width="52" height="14" fill="#ffffff" rx="7" ><animate attributeName="width" values="0;0;52" keyTimes="0;0.583;1" dur="1.44s" fill="freeze"/></rect><text x="44" y="230" font-size="18" >TYPESCRIPT</text><rect x="270" y="215" width="52" height="14" fill="#ffffff" rx="7" ><animate attributeName="width" values="0;0;52" keyTimes="0;0.600;1" dur="1.50s" fill="freeze"/></rect><rect x="330" y="215" width="52" height="14" fill="#ffffff" rx="7" ><animate attributeName="width" values="0;0;52" keyTimes="0;0.615;1" dur="1.56s" fill="freeze"/></rect><rect x="390" y="215" width="52" height="14" fill="#ffffff" rx="7" ><animate attributeName="width" values="0;0;52" keyTimes="0;0.630;1" dur="1.62s" fill="freeze"/></rect><rect x="450" y="215" width="52" height="14" fill="#1a1a1a" rx="7" /><rect x="510" y="215" width="52" height="14" fill="#1a1a1a" rx="7" /><text x="44" y="272" font-size="18" >C++</text><rect x="270" y="257" width="52" height="14" fill="#ffffff" rx="7" ><animate attributeName="width" values="0;0;52" keyTimes="0;0.667;1" dur="1.80s" fill="freeze"/></rect><rect x="330" y="257" width="52" height="14" fill="#ffffff" rx="7" ><animate attributeName="width" values="0;0;52" keyTimes="0;0.677;1" dur="1.86s" fill="freeze"/></rect><rect x="390" y="257" width="52" height="14" fill="#ffffff" rx="7" ><animate attributeName="width" values="0;0;52" keyTimes="0;0.687;1" dur="1.92s" fill="freeze"/></rect><rect x="450" y="257" width="52" height="14" fill="#1a1a1a" rx="7" /><rect x="510" y="257" width="52" height="14" fill="#1a1a1a" rx="7" /><text x="704" y="104" font-size="18" >ML_WORKS</text><rect x="1121.6" y="86" width="38.4" height="24" fill="none" stroke="#262626" rx="12" /><text x="1140.8" y="103" font-size="12" text-anchor="middle" class="m" letter-spacing="2">ML</text><text x="704" y="146" font-size="18" >cutemoney</text><rect x="1114.4" y="128" width="45.599999999999994" height="24" fill="none" stroke="#262626" rx="12" /><text x="1137.2" y="145" font-size="12" text-anchor="middle" class="m" letter-spacing="2">APP</text><text x="704" y="188" font-size="18" >File_Studio</text><rect x="1107.2" y="170" width="52.8" height="24" fill="none" stroke="#262626" rx="12" /><text x="1133.6" y="187" font-size="12" text-anchor="middle" class="m" letter-spacing="2">TOOL</text><text x="704" y="230" font-size="18" >live-caption</text><rect x="1107.2" y="212" width="52.8" height="24" fill="none" stroke="#262626" rx="12" /><text x="1133.6" y="229" font-size="12" text-anchor="middle" class="m" letter-spacing="2">LIVE</text></svg>